<svg width="280" height="54" viewBox="0 0 280 54" fill="none" xmlns="http://www.w3.org/2000/svg">
<g clip-path="url(#clip0_1208_2109)">
<path d="M279.35 31.9609H0V32.7609H279.35V31.9609Z" fill="white"/>
<path d="M140.76 23.3816L149.71 0.601562H152.15L160.88 23.3816H158.67L156.04 16.2316H145.66L142.97 23.3816H140.75H140.76ZM146.39 14.3916H155.31L150.85 2.43156L146.39 14.3916Z" fill="white"/>
<path d="M166.097 16.58C166.177 17.59 166.407 18.45 166.777 19.16C167.147 19.87 167.617 20.44 168.197 20.88C168.777 21.32 169.447 21.64 170.207 21.85C170.967 22.05 171.777 22.15 172.647 22.15C173.657 22.15 174.537 22.02 175.277 21.77C176.017 21.52 176.617 21.17 177.077 20.74C177.537 20.31 177.887 19.81 178.107 19.24C178.327 18.67 178.437 18.07 178.437 17.44C178.437 16.55 178.237 15.84 177.837 15.29C177.437 14.74 176.917 14.29 176.267 13.95C175.627 13.6 174.887 13.32 174.047 13.11C173.217 12.9 172.357 12.69 171.487 12.49C170.607 12.29 169.757 12.05 168.927 11.78C168.097 11.51 167.357 11.14 166.707 10.67C166.067 10.21 165.537 9.61 165.137 8.88C164.737 8.15 164.537 7.23 164.537 6.11C164.537 5.33 164.697 4.57 165.027 3.83C165.357 3.09 165.837 2.44 166.487 1.87C167.127 1.3 167.937 0.85 168.907 0.51C169.877 0.17 170.997 0 172.257 0C173.517 0 174.667 0.18 175.627 0.54C176.587 0.9 177.387 1.39 178.017 2.01C178.647 2.63 179.127 3.35 179.437 4.18C179.757 5 179.907 5.88 179.907 6.81H177.847C177.847 5.95 177.697 5.2 177.387 4.56C177.077 3.93 176.667 3.41 176.137 3.01C175.607 2.61 175.007 2.31 174.337 2.12C173.657 1.93 172.967 1.83 172.247 1.83C171.147 1.83 170.227 1.98 169.477 2.29C168.727 2.6 168.137 2.99 167.687 3.48C167.237 3.97 166.937 4.5 166.767 5.09C166.597 5.68 166.567 6.27 166.677 6.86C166.807 7.6 167.097 8.19 167.567 8.63C168.027 9.07 168.597 9.44 169.277 9.72C169.947 10 170.697 10.24 171.507 10.42C172.317 10.6 173.147 10.79 173.987 10.99C174.827 11.19 175.647 11.43 176.437 11.7C177.227 11.97 177.927 12.34 178.537 12.81C179.147 13.27 179.637 13.87 180.007 14.6C180.377 15.33 180.557 16.24 180.557 17.34C180.557 19.45 179.827 21.08 178.377 22.24C176.917 23.4 174.877 23.98 172.237 23.98C171.057 23.98 169.957 23.83 168.947 23.52C167.937 23.21 167.057 22.75 166.317 22.13C165.577 21.51 165.007 20.74 164.597 19.82C164.187 18.9 163.977 17.82 163.977 16.58H166.067H166.097Z" fill="white"/>
<path d="M183.758 0.601562H200.338V2.43156H193.128V23.3716H190.978V2.44156H183.768V0.601562H183.758Z" fill="white"/>
<path d="M206.791 13.0316V23.3816L204.641 23.3516V0.601562H213.561C216.071 0.601562 217.991 1.07156 219.321 2.01156C220.651 2.95156 221.311 4.47156 221.311 6.58156C221.311 8.01156 221.021 9.15156 220.441 10.0016C219.861 10.8416 218.921 11.5616 217.611 12.1516C218.281 12.3816 218.811 12.7216 219.191 13.1616C219.571 13.6016 219.851 14.1116 220.041 14.6816C220.231 15.2516 220.351 15.8516 220.401 16.4816C220.451 17.1116 220.491 17.7216 220.511 18.3116C220.531 19.1816 220.571 19.8916 220.621 20.4616C220.671 21.0316 220.741 21.4916 220.811 21.8516C220.881 22.2116 220.971 22.4916 221.081 22.6916C221.191 22.8916 221.311 23.0416 221.461 23.1516V23.3416L219.091 23.3716C218.861 22.9916 218.691 22.4616 218.601 21.7916C218.511 21.1216 218.431 20.4116 218.381 19.6716C218.331 18.9316 218.291 18.2116 218.251 17.5216C218.211 16.8316 218.161 16.2516 218.081 15.8116C217.951 15.2016 217.751 14.7116 217.461 14.3416C217.181 13.9716 216.831 13.6916 216.431 13.5016C216.031 13.3116 215.581 13.1816 215.091 13.1216C214.591 13.0616 214.081 13.0316 213.561 13.0316H206.791ZM213.491 11.2016C214.291 11.2016 215.041 11.1216 215.721 10.9516C216.401 10.7816 217.001 10.5116 217.511 10.1416C218.021 9.77156 218.421 9.30156 218.711 8.73156C219.011 8.16156 219.151 7.48156 219.151 6.67156C219.151 5.83156 219.001 5.13156 218.691 4.58156C218.381 4.03156 217.971 3.60156 217.461 3.28156C216.941 2.96156 216.351 2.74156 215.691 2.62156C215.031 2.49156 214.331 2.43156 213.621 2.43156H206.791V11.1916H213.501L213.491 11.2016Z" fill="white"/>
<path d="M226.148 12.02C226.148 10.35 226.378 8.79 226.828 7.34C227.278 5.89 227.948 4.61 228.838 3.53C229.728 2.44 230.818 1.58 232.128 0.95C233.438 0.32 234.948 0 236.648 0C238.348 0 239.978 0.31 241.318 0.93C242.658 1.55 243.778 2.41 244.668 3.49C245.568 4.58 246.238 5.85 246.688 7.32C247.138 8.79 247.368 10.35 247.368 12.02C247.368 13.69 247.138 15.21 246.688 16.66C246.238 18.1 245.568 19.37 244.678 20.46C243.788 21.55 242.688 22.41 241.358 23.04C240.028 23.67 238.488 23.99 236.738 23.99C234.988 23.99 233.448 23.67 232.118 23.04C230.788 22.41 229.678 21.55 228.798 20.46C227.908 19.37 227.248 18.11 226.808 16.66C226.368 15.22 226.148 13.67 226.148 12.02ZM236.778 22.15C238.258 22.15 239.528 21.87 240.588 21.31C241.648 20.75 242.528 20.01 243.218 19.08C243.898 18.15 244.408 17.08 244.738 15.85C245.068 14.63 245.228 13.35 245.228 12.02C245.228 10.44 245.028 9.02 244.638 7.76C244.248 6.51 243.688 5.43 242.948 4.55C242.208 3.66 241.308 2.99 240.258 2.52C239.198 2.06 238.018 1.82 236.718 1.82C235.258 1.82 233.998 2.11 232.938 2.67C231.868 3.24 230.998 3.99 230.308 4.93C229.618 5.87 229.118 6.95 228.788 8.17C228.458 9.39 228.298 10.67 228.298 12C228.298 13.33 228.458 14.64 228.788 15.86C229.118 17.08 229.618 18.16 230.308 19.09C230.988 20.02 231.868 20.76 232.938 21.3C233.998 21.85 235.288 22.12 236.778 22.12V22.15Z" fill="white"/>
<path d="M10.11 0.230469C7.31 0.230469 4.97 1.17047 3.15 3.03047C1.06 5.16047 0 8.24047 0 12.1905C0 15.8405 0.93 18.7605 2.77 20.8505C4.61 22.9305 7.16 23.9805 10.37 23.9805C12.96 23.9805 15.12 23.2005 16.77 21.6605C18.4 20.1505 19.44 18.1605 19.86 15.7605H15.31C15 16.9105 14.6 17.7905 14.13 18.3805C13.25 19.5005 11.96 20.0705 10.3 20.0705C8.64 20.0705 7.31 19.4105 6.26 18.1105C5.21 16.8205 4.68 14.8505 4.68 12.2705C4.68 9.69047 5.18 7.67047 6.18 6.25047C7.18 4.82047 8.57 4.10047 10.3 4.10047C12.03 4.10047 13.3 4.61047 14.17 5.63047C14.64 6.19047 15.04 7.01047 15.34 8.08047H19.93C19.84 6.71047 19.32 5.33047 18.39 3.98047C16.65 1.49047 13.87 0.230469 10.11 0.230469Z" fill="white"/>
<path d="M26.6484 23.3419H43.7784V19.4419H31.1084V13.3419H42.2284V9.58187H31.1084V4.51188H43.2184V0.671875H26.6484V23.3519V23.3419Z" fill="white"/>
<path d="M49.1528 16.4905C49.1828 18.7805 50.0328 20.6005 51.7028 21.9105C53.4028 23.2505 55.7728 23.9305 58.7428 23.9305C61.7128 23.9305 63.9328 23.2405 65.5228 21.8805C67.1028 20.5205 67.9128 18.8005 67.9128 16.7505C67.9128 14.7005 67.2328 13.2105 65.9028 12.1605C65.0428 11.4805 63.7228 10.9305 61.9828 10.5205L57.9628 9.57047C56.4128 9.21047 55.3828 8.89047 54.8928 8.61047C54.1228 8.19047 53.7228 7.54047 53.7228 6.68047C53.7228 5.76047 54.1228 5.03047 54.9028 4.51047C55.6728 4.00047 56.7028 3.75047 57.9828 3.75047C59.1328 3.75047 60.1028 3.95047 60.8828 4.34047C62.0328 4.92047 62.6728 5.90047 62.7828 7.26047H67.1728C67.0628 4.93047 66.1728 3.12047 64.5128 1.88047C62.8128 0.620469 60.7328 -0.0195312 58.3228 -0.0195312C55.4428 -0.0195312 53.2228 0.660469 51.7428 1.99047C50.2628 3.32047 49.5128 5.01047 49.5128 7.02047C49.5128 9.22047 50.2728 10.8605 51.7828 11.8905C52.6728 12.5105 54.3528 13.1005 56.7628 13.6305L59.2428 14.1705C60.6928 14.4805 61.7728 14.8505 62.4528 15.2505C63.1528 15.6805 63.5028 16.3005 63.5028 17.1005C63.5028 18.4405 62.7928 19.3705 61.3828 19.8605C60.6528 20.1105 59.7028 20.2405 58.5428 20.2405C56.5928 20.2405 55.1928 19.7505 54.3828 18.7905C53.9528 18.2805 53.6528 17.5005 53.5028 16.4805H49.1328L49.1528 16.4905Z" fill="white"/>
<path d="M73.6328 23.3419H78.1728V0.671875H73.6328V23.3519V23.3419Z" fill="white"/>
<path d="M85.3984 0.671875V14.6319C85.3984 17.0319 85.7784 18.9319 86.5184 20.2619C87.9084 22.7019 90.5884 23.9319 94.4884 23.9319C98.3884 23.9319 101.058 22.6919 102.438 20.2619C103.178 18.9319 103.558 17.0319 103.558 14.6319V0.671875H98.9084V14.6219C98.9084 16.2019 98.7184 17.3819 98.3384 18.1119C97.7484 19.4219 96.4484 20.0919 94.4884 20.0919C92.5284 20.0919 91.2084 19.4219 90.6184 18.1019C90.2484 17.3719 90.0484 16.1919 90.0484 14.6119V0.671875H85.3984Z" fill="white"/>
<path d="M128.518 23.3419H132.768V0.671875H126.078L121.858 19.0319L117.598 0.671875H110.828V23.3519H115.068L115.038 4.50187L119.538 23.3519H124.018L128.548 4.51188L128.518 23.3519V23.3419Z" fill="white"/>
<path d="M2.32 49.13C2.4 49.66 2.54 50.06 2.76 50.32C3.16 50.8 3.85 51.04 4.83 51.04C5.42 51.04 5.89 50.98 6.26 50.85C6.95 50.61 7.3 50.16 7.3 49.5C7.3 49.12 7.13 48.82 6.79 48.61C6.45 48.41 5.91 48.22 5.17 48.07L3.91 47.79C2.67 47.52 1.82 47.22 1.36 46.9C0.58 46.36 0.18 45.52 0.18 44.38C0.18 43.34 0.56 42.47 1.33 41.78C2.1 41.09 3.22 40.75 4.71 40.75C5.95 40.75 7.01 41.08 7.89 41.72C8.77 42.37 9.23 43.31 9.27 44.55H6.93C6.89 43.85 6.57 43.35 5.99 43.06C5.6 42.87 5.12 42.77 4.54 42.77C3.9 42.77 3.39 42.9 3 43.15C2.61 43.4 2.43 43.75 2.43 44.21C2.43 44.63 2.62 44.94 3 45.14C3.24 45.28 3.76 45.44 4.55 45.62L6.59 46.1C7.48 46.31 8.16 46.59 8.6 46.94C9.29 47.49 9.64 48.28 9.64 49.32C9.64 50.36 9.23 51.26 8.41 51.97C7.59 52.67 6.43 53.02 4.93 53.02C3.43 53.02 2.19 52.67 1.32 51.98C0.45 51.29 0 50.34 0 49.13H2.32Z" fill="white"/>
<path d="M21.3125 47.6898C20.6325 48.2598 19.6625 48.5398 18.3925 48.5398H15.9725V52.7198H13.5625V41.0898H18.5525C19.7025 41.0898 20.6225 41.3898 21.3025 41.9898C21.9825 42.5898 22.3325 43.5198 22.3325 44.7798C22.3325 46.1498 21.9925 47.1198 21.3125 47.6898ZM19.4525 43.4998C19.1425 43.2398 18.7125 43.1098 18.1625 43.1098H15.9725V46.5298H18.1625C18.7125 46.5298 19.1525 46.3898 19.4525 46.1098C19.7625 45.8298 19.9125 45.3898 19.9125 44.7798C19.9125 44.1698 19.7625 43.7398 19.4525 43.4898V43.4998Z" fill="white"/>
<path d="M28.5562 41.0898H31.3062L35.4263 52.7198H32.7863L32.0163 50.3298H27.7362L26.9463 52.7198H24.4062L28.5562 41.0898ZM28.3962 48.3298H31.3762L29.9062 43.7498L28.3962 48.3298Z" fill="white"/>
<path d="M40.1725 42.3089C41.1125 41.3489 42.3025 40.8789 43.7525 40.8789C45.6925 40.8789 47.1025 41.5189 48.0025 42.8089C48.4925 43.5289 48.7625 44.2489 48.8025 44.9789H46.3725C46.2225 44.4189 46.0225 43.9989 45.7725 43.7189C45.3425 43.2189 44.7025 42.9589 43.8425 42.9589C42.9825 42.9589 42.2925 43.3189 41.7925 44.0289C41.2925 44.7389 41.0425 45.7489 41.0425 47.0589C41.0425 48.3689 41.3025 49.3389 41.8325 49.9889C42.3625 50.6389 43.0325 50.9589 43.8425 50.9589C44.6525 50.9589 45.3125 50.6789 45.7525 50.1189C45.9925 49.8189 46.1925 49.3689 46.3525 48.7689H48.7725C48.5625 50.0389 48.0325 51.0689 47.1725 51.8589C46.3125 52.6489 45.2225 53.0489 43.8825 53.0489C42.2225 53.0489 40.9225 52.5089 39.9825 51.4389C39.0325 50.3589 38.5625 48.8789 38.5625 46.9989C38.5625 44.9689 39.1025 43.3989 40.1825 42.2989L40.1725 42.3089Z" fill="white"/>
<path d="M61.4809 43.1498H55.3309V45.6198H60.9809V47.6398H55.3309V50.6298H61.7709V52.7198H52.9609V41.0898H61.4909V43.1498H61.4809Z" fill="white"/>
<path d="M72.6103 47.8606C72.9603 47.3606 73.5303 46.8706 74.3103 46.3806L74.5503 46.2306C74.2103 45.8506 73.9503 45.4606 73.7703 45.0706C73.5903 44.6806 73.4903 44.2606 73.4903 43.8406C73.4903 42.9906 73.7803 42.3306 74.3503 41.8506C74.9303 41.3706 75.6703 41.1406 76.5903 41.1406C77.4303 41.1406 78.1203 41.3806 78.6603 41.8706C79.2103 42.3606 79.4803 42.9806 79.4803 43.7406C79.4803 44.4306 79.3203 44.9806 78.9903 45.4106C78.6603 45.8406 78.1803 46.2306 77.5503 46.6006L79.2203 48.6306C79.4103 48.3606 79.5603 48.0606 79.6603 47.7406C79.7603 47.4206 79.8203 47.0806 79.8203 46.7206H81.8203C81.7803 47.4306 81.6103 48.1406 81.3103 48.8606C81.1403 49.2706 80.8703 49.7206 80.4903 50.2106L82.6003 52.7306H79.8803L79.0703 51.7406C78.6803 52.1006 78.3103 52.3706 77.9703 52.5506C77.3603 52.8606 76.6603 53.0206 75.8703 53.0206C74.6803 53.0206 73.7503 52.6706 73.0803 51.9806C72.4103 51.2806 72.0703 50.5106 72.0703 49.6706C72.0703 48.9706 72.2403 48.3706 72.5903 47.8706L72.6103 47.8606ZM74.8103 50.6506C75.1303 50.9706 75.5403 51.1306 76.0303 51.1306C76.4003 51.1306 76.7603 51.0506 77.0903 50.8806C77.4203 50.7106 77.7003 50.5206 77.9003 50.3106L75.7203 47.6606C75.1503 48.0306 74.7703 48.3606 74.5903 48.6506C74.4103 48.9406 74.3103 49.2506 74.3103 49.5906C74.3103 49.9706 74.4703 50.3306 74.7903 50.6506H74.8103ZM75.8003 44.4206C75.9003 44.5706 76.1103 44.8406 76.4403 45.2306C76.7703 45.0106 77.0003 44.8206 77.1403 44.6706C77.4103 44.3906 77.5503 44.0806 77.5503 43.7406C77.5503 43.5006 77.4703 43.2806 77.3003 43.0906C77.1403 42.9006 76.8903 42.8006 76.5603 42.8006C76.3503 42.8006 76.1603 42.8606 75.9803 42.9706C75.7103 43.1306 75.5703 43.3906 75.5703 43.7406C75.5703 43.9506 75.6503 44.1706 75.8003 44.4106V44.4206Z" fill="white"/>
<path d="M99.7184 41.3416C100.538 41.6116 101.198 42.1016 101.698 42.8216C102.108 43.4016 102.378 44.0316 102.528 44.7016C102.678 45.3716 102.748 46.0116 102.748 46.6316C102.748 48.1816 102.438 49.4916 101.818 50.5616C100.978 52.0116 99.6784 52.7316 97.9184 52.7316H92.8984V41.1016H97.9184C98.6384 41.1116 99.2384 41.2016 99.7184 41.3516V41.3416ZM95.2684 43.1116V50.7016H97.5084C98.6584 50.7016 99.4584 50.1416 99.9084 49.0016C100.158 48.3816 100.278 47.6416 100.278 46.7816C100.278 45.6016 100.088 44.6916 99.7184 44.0516C99.3484 43.4116 98.6084 43.1016 97.4984 43.1016H95.2584L95.2684 43.1116Z" fill="white"/>
<path d="M115.333 43.1498H109.183V45.6198H114.833V47.6398H109.183V50.6298H115.623V52.7198H106.812V41.0898H115.342V43.1498H115.333Z" fill="white"/>
<path d="M119.658 41.1116H127.948V43.1516H122.068V45.8216H127.218V47.8416H122.068V52.7216H119.648V41.1016L119.658 41.1116Z" fill="white"/>
<path d="M140.278 43.1498H134.128V45.6198H139.778V47.6398H134.128V50.6298H140.568V52.7198H131.758V41.0898H140.288V43.1498H140.278Z" fill="white"/>
<path d="M144.573 41.0898H147.122L151.743 49.1998V41.0898H154.003V52.7198H151.573L146.833 44.4698V52.7198H144.562V41.0898H144.573Z" fill="white"/>
<path d="M160.179 49.13C160.259 49.66 160.399 50.06 160.619 50.32C161.019 50.8 161.709 51.04 162.689 51.04C163.279 51.04 163.749 50.98 164.119 50.85C164.809 50.61 165.159 50.16 165.159 49.5C165.159 49.12 164.989 48.82 164.649 48.61C164.309 48.41 163.769 48.22 163.029 48.07L161.769 47.79C160.529 47.52 159.679 47.22 159.219 46.9C158.439 46.36 158.039 45.52 158.039 44.38C158.039 43.34 158.419 42.47 159.189 41.78C159.959 41.09 161.079 40.75 162.569 40.75C163.809 40.75 164.869 41.08 165.749 41.72C166.629 42.37 167.089 43.31 167.129 44.55H164.789C164.749 43.85 164.429 43.35 163.849 43.06C163.459 42.87 162.979 42.77 162.399 42.77C161.759 42.77 161.249 42.9 160.859 43.15C160.469 43.4 160.289 43.75 160.289 44.21C160.289 44.63 160.479 44.94 160.859 45.14C161.099 45.28 161.619 45.44 162.409 45.62L164.449 46.1C165.339 46.31 166.019 46.59 166.459 46.94C167.149 47.49 167.499 48.28 167.499 49.32C167.499 50.36 167.089 51.26 166.269 51.97C165.449 52.67 164.289 53.02 162.789 53.02C161.289 53.02 160.049 52.67 159.179 51.98C158.309 51.29 157.859 50.34 157.859 49.13H160.179Z" fill="white"/>
<path d="M179.958 43.1498H173.807V45.6198H179.458V47.6398H173.807V50.6298H180.247V52.7198H171.438V41.0898H179.967V43.1498H179.958Z" fill="white"/>
<path d="M192.679 49.13C192.759 49.66 192.899 50.06 193.119 50.32C193.519 50.8 194.209 51.04 195.189 51.04C195.779 51.04 196.249 50.98 196.619 50.85C197.309 50.61 197.659 50.16 197.659 49.5C197.659 49.12 197.489 48.82 197.149 48.61C196.809 48.41 196.269 48.22 195.529 48.07L194.269 47.79C193.029 47.52 192.179 47.22 191.719 46.9C190.939 46.36 190.539 45.52 190.539 44.38C190.539 43.34 190.919 42.47 191.689 41.78C192.459 41.09 193.579 40.75 195.069 40.75C196.309 40.75 197.369 41.08 198.249 41.72C199.129 42.37 199.589 43.31 199.629 44.55H197.289C197.249 43.85 196.929 43.35 196.349 43.06C195.959 42.87 195.479 42.77 194.899 42.77C194.259 42.77 193.749 42.9 193.359 43.15C192.969 43.4 192.789 43.75 192.789 44.21C192.789 44.63 192.979 44.94 193.359 45.14C193.599 45.28 194.119 45.44 194.909 45.62L196.949 46.1C197.839 46.31 198.519 46.59 198.959 46.94C199.649 47.49 199.999 48.28 199.999 49.32C199.999 50.36 199.589 51.26 198.769 51.97C197.949 52.67 196.789 53.02 195.289 53.02C193.789 53.02 192.549 52.67 191.679 51.98C190.809 51.29 190.359 50.34 190.359 49.13H192.679Z" fill="white"/>
<path d="M210.488 41.0898H213.238L209.348 48.3598V52.7198H206.918V48.3598L202.898 41.0898H205.758L208.168 46.1598L210.478 41.0898H210.488Z" fill="white"/>
<path d="M218.539 49.13C218.619 49.66 218.759 50.06 218.979 50.32C219.379 50.8 220.069 51.04 221.049 51.04C221.639 51.04 222.109 50.98 222.479 50.85C223.169 50.61 223.519 50.16 223.519 49.5C223.519 49.12 223.349 48.82 223.009 48.61C222.669 48.41 222.129 48.22 221.389 48.07L220.129 47.79C218.889 47.52 218.039 47.22 217.579 46.9C216.799 46.36 216.399 45.52 216.399 44.38C216.399 43.34 216.779 42.47 217.549 41.78C218.319 41.09 219.439 40.75 220.929 40.75C222.169 40.75 223.229 41.08 224.109 41.72C224.989 42.37 225.449 43.31 225.489 44.55H223.149C223.109 43.85 222.789 43.35 222.209 43.06C221.819 42.87 221.339 42.77 220.759 42.77C220.119 42.77 219.609 42.9 219.219 43.15C218.829 43.4 218.649 43.75 218.649 44.21C218.649 44.63 218.839 44.94 219.219 45.14C219.459 45.28 219.979 45.44 220.769 45.62L222.809 46.1C223.699 46.31 224.379 46.59 224.819 46.94C225.509 47.49 225.859 48.28 225.859 49.32C225.859 50.36 225.449 51.26 224.629 51.97C223.809 52.67 222.649 53.02 221.149 53.02C219.649 53.02 218.409 52.67 217.539 51.98C216.659 51.29 216.219 50.34 216.219 49.13H218.539Z" fill="white"/>
<path d="M238.172 41.0898V43.1498H234.692V52.7198H232.242V43.1498H228.742V41.0898H238.162H238.172Z" fill="white"/>
<path d="M250.34 43.1498H244.19V45.6198H249.84V47.6398H244.19V50.6298H250.63V52.7198H241.82V41.0898H250.35V43.1498H250.34Z" fill="white"/>
<path d="M262.382 41.0898H265.882V52.7198H263.622V44.8498C263.622 44.6198 263.622 44.3098 263.622 43.8998C263.622 43.4898 263.622 43.1798 263.622 42.9598L261.422 52.7198H259.062L256.872 42.9598C256.872 43.1798 256.872 43.4898 256.872 43.8998C256.872 44.3098 256.872 44.6198 256.872 44.8498V52.7198H254.602V41.0898H258.142L260.262 50.2398L262.362 41.0898H262.382Z" fill="white"/>
<path d="M272.031 49.13C272.111 49.66 272.251 50.06 272.471 50.32C272.871 50.8 273.561 51.04 274.541 51.04C275.131 51.04 275.601 50.98 275.971 50.85C276.661 50.61 277.011 50.16 277.011 49.5C277.011 49.12 276.841 48.82 276.501 48.61C276.161 48.41 275.621 48.22 274.881 48.07L273.621 47.79C272.381 47.52 271.531 47.22 271.071 46.9C270.291 46.36 269.891 45.52 269.891 44.38C269.891 43.34 270.271 42.47 271.041 41.78C271.811 41.09 272.931 40.75 274.421 40.75C275.661 40.75 276.721 41.08 277.601 41.72C278.481 42.37 278.941 43.31 278.981 44.55H276.641C276.601 43.85 276.281 43.35 275.701 43.06C275.311 42.87 274.831 42.77 274.251 42.77C273.611 42.77 273.101 42.9 272.711 43.15C272.321 43.4 272.141 43.75 272.141 44.21C272.141 44.63 272.331 44.94 272.711 45.14C272.951 45.28 273.471 45.44 274.261 45.62L276.301 46.1C277.191 46.31 277.871 46.59 278.311 46.94C279.001 47.49 279.351 48.28 279.351 49.32C279.351 50.36 278.941 51.26 278.121 51.97C277.301 52.67 276.141 53.02 274.641 53.02C273.141 53.02 271.901 52.67 271.031 51.98C270.161 51.29 269.711 50.34 269.711 49.13H272.031Z" fill="white"/>
<path d="M279.347 0H255.367V23.98H279.347V0Z" fill="white"/>
</g>
<defs>
<clipPath id="clip0_1208_2109">
<rect width="279.35" height="53.05" fill="white"/>
</clipPath>
</defs>
</svg>
